<?xml version="1.0" encoding="UTF-8" standalone="no"?>
<!DOCTYPE svg PUBLIC "-//W3C//DTD SVG 1.1//EN"
 "http://www.w3.org/Graphics/SVG/1.1/DTD/svg11.dtd">
<!-- Generated by graphviz version 2.40.1 (20161225.0304)
 -->
<!-- Title: xeth_fig1 Pages: 1 -->
<svg width="212pt" height="97pt"
 viewBox="0.00 0.00 212.42 97.00" xmlns="http://www.w3.org/2000/svg" xmlns:xlink="http://www.w3.org/1999/xlink">
<g id="graph0" class="graph" transform="scale(1 1) rotate(0) translate(4 93)">
<title>xeth_fig1</title>
<polygon fill="#ffffff" stroke="transparent" points="-4,4 -4,-93 208.4219,-93 208.4219,4 -4,4"/>
<!-- daemon -->
<g id="node1" class="node">
<title>daemon</title>
<polygon fill="none" stroke="#000000" points="204.4219,-38 144.4219,-38 144.4219,0 204.4219,0 204.4219,-38"/>
<text text-anchor="middle" x="174.4219" y="-22.8" font-family="Times,serif" font-size="14.00" fill="#000000">switch</text>
<text text-anchor="middle" x="174.4219" y="-7.8" font-family="Times,serif" font-size="14.00" fill="#000000">daemon</text>
</g>
<!-- devs -->
<g id="node2" class="node">
<title>devs</title>
<text text-anchor="middle" x="63.4219" y="-77.8" font-family="Times,serif" font-size="14.00" fill="#000000">xeth&#45;DEV(s)</text>
</g>
<!-- mux -->
<g id="node3" class="node">
<title>mux</title>
<polygon fill="none" stroke="#000000" points="26.428,-1 100.4157,-1 126.7656,-37 .0781,-37 26.428,-1"/>
<text text-anchor="middle" x="63.4219" y="-15.3" font-family="Times,serif" font-size="14.00" fill="#000000">xeth&#45;mux</text>
</g>
<!-- devs&#45;&gt;mux -->
<g id="edge1" class="edge">
<title>devs&#45;&gt;mux</title>
<path fill="none" stroke="#000000" d="M63.4219,-63.7787C63.4219,-58.7163 63.4219,-53.0668 63.4219,-47.532"/>
<polygon fill="#000000" stroke="#000000" points="59.922,-63.8362 63.4219,-73.8363 66.922,-63.8363 59.922,-63.8362"/>
<polygon fill="#000000" stroke="#000000" points="66.9219,-47.214 63.4219,-37.2141 59.9219,-47.2141 66.9219,-47.214"/>
</g>
<!-- mux&#45;&gt;daemon -->
<g id="edge2" class="edge">
<title>mux&#45;&gt;daemon</title>
<path fill="none" stroke="#000000" stroke-dasharray="5,2" d="M114.8072,-5.5742C121.2266,-5.3427 127.6461,-5.653 134.0656,-6.5051"/>
<polygon fill="#000000" stroke="#000000" points="114.2991,-2.1037 104.6133,-6.3973 114.8625,-9.081 114.2991,-2.1037"/>
<polygon fill="#000000" stroke="#000000" points="133.6964,-9.9941 144.1533,-8.2902 134.9162,-3.1012 133.6964,-9.9941"/>
</g>
<!-- mux&#45;&gt;daemon -->
<g id="edge3" class="edge">
<title>mux&#45;&gt;daemon</title>
<path fill="none" stroke="#000000" stroke-width="2" d="M133.674,-31.5462C133.8954,-31.5176 134.1168,-31.4883 134.3382,-31.4584"/>
<polygon fill="#000000" stroke="#000000" stroke-width="2" points="133.3566,-28.0605 123.6914,-32.4003 133.9534,-35.035 133.3566,-28.0605"/>
<polygon fill="#000000" stroke="#000000" stroke-width="2" points="135.0728,-34.8826 144.3006,-29.6771 133.8407,-27.9919 135.0728,-34.8826"/>
</g>
</g>
</svg>
