<?xml version="1.0" encoding="UTF-8" standalone="no"?>
<!DOCTYPE svg PUBLIC "-//W3C//DTD SVG 1.1//EN"
 "http://www.w3.org/Graphics/SVG/1.1/DTD/svg11.dtd">
<!-- Generated by graphviz version 2.40.1 (20161225.0304)
 -->
<!-- Title: xeth_fig3 Pages: 1 -->
<svg width="212pt" height="332pt"
 viewBox="0.00 0.00 212.42 332.00" xmlns="http://www.w3.org/2000/svg" xmlns:xlink="http://www.w3.org/1999/xlink">
<g id="graph0" class="graph" transform="scale(1 1) rotate(0) translate(4 328)">
<title>xeth_fig3</title>
<polygon fill="#ffffff" stroke="transparent" points="-4,4 -4,-328 208.4219,-328 208.4219,4 -4,4"/>
<!-- daemon -->
<g id="node1" class="node">
<title>daemon</title>
<polygon fill="none" stroke="#000000" points="204.4219,-273 144.4219,-273 144.4219,-235 204.4219,-235 204.4219,-273"/>
<text text-anchor="middle" x="174.4219" y="-257.8" font-family="Times,serif" font-size="14.00" fill="#000000">switch</text>
<text text-anchor="middle" x="174.4219" y="-242.8" font-family="Times,serif" font-size="14.00" fill="#000000">daemon</text>
</g>
<!-- chip -->
<g id="node5" class="node">
<title>chip</title>
<polygon fill="none" stroke="#000000" points="148.7907,-127 88.053,-127 66.4219,-51 170.4219,-51 148.7907,-127"/>
<text text-anchor="middle" x="118.4219" y="-92.8" font-family="Times,serif" font-size="14.00" fill="#000000">switch</text>
<text text-anchor="middle" x="118.4219" y="-77.8" font-family="Times,serif" font-size="14.00" fill="#000000">chip</text>
</g>
<!-- daemon&#45;&gt;chip -->
<g id="edge6" class="edge">
<title>daemon&#45;&gt;chip</title>
<path fill="none" stroke="#000000" stroke-dasharray="1,5" d="M164.5967,-225.0508C156.3433,-200.7328 144.3802,-165.4846 134.699,-136.9594"/>
<polygon fill="#000000" stroke="#000000" points="161.3601,-226.4049 167.8883,-234.7495 167.9887,-224.1551 161.3601,-226.4049"/>
<polygon fill="#000000" stroke="#000000" points="137.9078,-135.5236 131.3796,-127.179 131.2792,-137.7734 137.9078,-135.5236"/>
</g>
<!-- devs -->
<g id="node2" class="node">
<title>devs</title>
<text text-anchor="middle" x="63.4219" y="-312.8" font-family="Times,serif" font-size="14.00" fill="#000000">xeth&#45;DEV(s)</text>
</g>
<!-- mux -->
<g id="node3" class="node">
<title>mux</title>
<polygon fill="none" stroke="#000000" points="26.428,-236 100.4157,-236 126.7656,-272 .0781,-272 26.428,-236"/>
<text text-anchor="middle" x="63.4219" y="-250.3" font-family="Times,serif" font-size="14.00" fill="#000000">xeth&#45;mux</text>
</g>
<!-- devs&#45;&gt;mux -->
<g id="edge1" class="edge">
<title>devs&#45;&gt;mux</title>
<path fill="none" stroke="#000000" d="M63.4219,-298.7787C63.4219,-293.7163 63.4219,-288.0668 63.4219,-282.532"/>
<polygon fill="#000000" stroke="#000000" points="59.922,-298.8362 63.4219,-308.8363 66.922,-298.8363 59.922,-298.8362"/>
<polygon fill="#000000" stroke="#000000" points="66.9219,-282.214 63.4219,-272.2141 59.9219,-282.2141 66.9219,-282.214"/>
</g>
<!-- mux&#45;&gt;daemon -->
<g id="edge2" class="edge">
<title>mux&#45;&gt;daemon</title>
<path fill="none" stroke="#000000" stroke-dasharray="5,2" d="M114.8072,-240.5742C121.2266,-240.3427 127.6461,-240.653 134.0656,-241.5051"/>
<polygon fill="#000000" stroke="#000000" points="114.2991,-237.1037 104.6133,-241.3973 114.8625,-244.081 114.2991,-237.1037"/>
<polygon fill="#000000" stroke="#000000" points="133.6964,-244.9941 144.1533,-243.2902 134.9162,-238.1012 133.6964,-244.9941"/>
</g>
<!-- mux&#45;&gt;daemon -->
<g id="edge3" class="edge">
<title>mux&#45;&gt;daemon</title>
<path fill="none" stroke="#000000" stroke-width="2" d="M133.674,-266.5462C133.8954,-266.5176 134.1168,-266.4883 134.3382,-266.4584"/>
<polygon fill="#000000" stroke="#000000" stroke-width="2" points="133.3566,-263.0605 123.6914,-267.4003 133.9534,-270.035 133.3566,-263.0605"/>
<polygon fill="#000000" stroke="#000000" stroke-width="2" points="135.0728,-269.8826 144.3006,-264.6771 133.8407,-262.9919 135.0728,-269.8826"/>
</g>
<!-- links -->
<g id="node4" class="node">
<title>links</title>
<ellipse fill="none" stroke="#000000" cx="87.4219" cy="-181" rx="33.5952" ry="18"/>
<text text-anchor="middle" x="87.4219" y="-177.3" font-family="Times,serif" font-size="14.00" fill="#000000">link(s)</text>
</g>
<!-- mux&#45;&gt;links -->
<g id="edge4" class="edge">
<title>mux&#45;&gt;links</title>
<path fill="none" stroke="#000000" stroke-width="2" d="M72.5026,-226.3795C74.3987,-220.6122 76.3983,-214.53 78.296,-208.7578"/>
<polygon fill="#000000" stroke="#000000" stroke-width="2" points="69.1528,-225.3621 69.3544,-235.9551 75.8026,-227.5484 69.1528,-225.3621"/>
<polygon fill="#000000" stroke="#000000" stroke-width="2" points="81.7592,-209.4303 81.5575,-198.8374 75.1093,-207.244 81.7592,-209.4303"/>
</g>
<!-- links&#45;&gt;chip -->
<g id="edge5" class="edge">
<title>links&#45;&gt;chip</title>
<path fill="none" stroke="#000000" stroke-width="2" d="M96.6156,-153.7153C98.4074,-148.3977 100.3347,-142.6779 102.2756,-136.9179"/>
<polygon fill="#000000" stroke="#000000" stroke-width="2" points="93.2754,-152.6674 93.399,-163.2615 99.909,-154.9026 93.2754,-152.6674"/>
<polygon fill="#000000" stroke="#000000" stroke-width="2" points="105.6567,-137.8444 105.5332,-127.2503 99.0232,-135.6091 105.6567,-137.8444"/>
</g>
<!-- ports -->
<g id="node6" class="node">
<title>ports</title>
<text text-anchor="middle" x="118.4219" y="-3.8" font-family="Times,serif" font-size="14.00" fill="#000000">ports</text>
</g>
<!-- chip&#45;&gt;ports -->
<g id="edge7" class="edge">
<title>chip&#45;&gt;ports</title>
<path fill="none" stroke="#000000" d="M118.4219,-40.6299C118.4219,-35.2212 118.4219,-29.9983 118.4219,-25.3608"/>
<polygon fill="#000000" stroke="#000000" points="114.922,-40.6364 118.4219,-50.6365 121.922,-40.6365 114.922,-40.6364"/>
<polygon fill="#000000" stroke="#000000" points="121.9219,-25.2661 118.4219,-15.2661 114.9219,-25.2662 121.9219,-25.2661"/>
</g>
</g>
</svg>
