<?xml version="1.0" encoding="UTF-8" standalone="no"?>
<!DOCTYPE svg PUBLIC "-//W3C//DTD SVG 1.1//EN"
 "http://www.w3.org/Graphics/SVG/1.1/DTD/svg11.dtd">
<!-- Generated by graphviz version 2.40.1 (20161225.0304)
 -->
<!-- Title: xeth_fig2 Pages: 1 -->
<svg width="234pt" height="260pt"
 viewBox="0.00 0.00 234.42 260.00" xmlns="http://www.w3.org/2000/svg" xmlns:xlink="http://www.w3.org/1999/xlink">
<g id="graph0" class="graph" transform="scale(1 1) rotate(0) translate(4 256)">
<title>xeth_fig2</title>
<polygon fill="#ffffff" stroke="transparent" points="-4,4 -4,-256 230.4219,-256 230.4219,4 -4,4"/>
<!-- daemon -->
<g id="node1" class="node">
<title>daemon</title>
<polygon fill="none" stroke="#000000" points="204.4219,-201 144.4219,-201 144.4219,-163 204.4219,-163 204.4219,-201"/>
<text text-anchor="middle" x="174.4219" y="-185.8" font-family="Times,serif" font-size="14.00" fill="#000000">switch</text>
<text text-anchor="middle" x="174.4219" y="-170.8" font-family="Times,serif" font-size="14.00" fill="#000000">daemon</text>
</g>
<!-- chip -->
<g id="node4" class="node">
<title>chip</title>
<polygon fill="none" stroke="#000000" points="204.7907,-127 144.053,-127 122.4219,-51 226.4219,-51 204.7907,-127"/>
<text text-anchor="middle" x="174.4219" y="-92.8" font-family="Times,serif" font-size="14.00" fill="#000000">switch</text>
<text text-anchor="middle" x="174.4219" y="-77.8" font-family="Times,serif" font-size="14.00" fill="#000000">chip</text>
</g>
<!-- daemon&#45;&gt;chip -->
<g id="edge4" class="edge">
<title>daemon&#45;&gt;chip</title>
<path fill="none" stroke="#000000" stroke-dasharray="1,5" d="M174.4219,-152.6273C174.4219,-147.6811 174.4219,-142.4344 174.4219,-137.1591"/>
<polygon fill="#000000" stroke="#000000" points="170.9219,-152.7303 174.4219,-162.7303 177.9219,-152.7304 170.9219,-152.7303"/>
<polygon fill="#000000" stroke="#000000" points="177.9219,-137.0509 174.4219,-127.051 170.9219,-137.051 177.9219,-137.0509"/>
</g>
<!-- devs -->
<g id="node2" class="node">
<title>devs</title>
<text text-anchor="middle" x="63.4219" y="-240.8" font-family="Times,serif" font-size="14.00" fill="#000000">xeth&#45;DEV(s)</text>
</g>
<!-- mux -->
<g id="node3" class="node">
<title>mux</title>
<polygon fill="none" stroke="#000000" points="26.428,-164 100.4157,-164 126.7656,-200 .0781,-200 26.428,-164"/>
<text text-anchor="middle" x="63.4219" y="-178.3" font-family="Times,serif" font-size="14.00" fill="#000000">xeth&#45;mux</text>
</g>
<!-- devs&#45;&gt;mux -->
<g id="edge1" class="edge">
<title>devs&#45;&gt;mux</title>
<path fill="none" stroke="#000000" d="M63.4219,-226.7787C63.4219,-221.7163 63.4219,-216.0668 63.4219,-210.532"/>
<polygon fill="#000000" stroke="#000000" points="59.922,-226.8362 63.4219,-236.8363 66.922,-226.8363 59.922,-226.8362"/>
<polygon fill="#000000" stroke="#000000" points="66.9219,-210.214 63.4219,-200.2141 59.9219,-210.2141 66.9219,-210.214"/>
</g>
<!-- mux&#45;&gt;daemon -->
<g id="edge2" class="edge">
<title>mux&#45;&gt;daemon</title>
<path fill="none" stroke="#000000" stroke-dasharray="5,2" d="M114.8072,-168.5742C121.2266,-168.3427 127.6461,-168.653 134.0656,-169.5051"/>
<polygon fill="#000000" stroke="#000000" points="114.2991,-165.1037 104.6133,-169.3973 114.8625,-172.081 114.2991,-165.1037"/>
<polygon fill="#000000" stroke="#000000" points="133.6964,-172.9941 144.1533,-171.2902 134.9162,-166.1012 133.6964,-172.9941"/>
</g>
<!-- mux&#45;&gt;daemon -->
<g id="edge3" class="edge">
<title>mux&#45;&gt;daemon</title>
<path fill="none" stroke="#000000" stroke-width="2" d="M133.674,-194.5462C133.8954,-194.5176 134.1168,-194.4883 134.3382,-194.4584"/>
<polygon fill="#000000" stroke="#000000" stroke-width="2" points="133.3566,-191.0605 123.6914,-195.4003 133.9534,-198.035 133.3566,-191.0605"/>
<polygon fill="#000000" stroke="#000000" stroke-width="2" points="135.0728,-197.8826 144.3006,-192.6771 133.8407,-190.9919 135.0728,-197.8826"/>
</g>
<!-- ports -->
<g id="node5" class="node">
<title>ports</title>
<text text-anchor="middle" x="174.4219" y="-3.8" font-family="Times,serif" font-size="14.00" fill="#000000">ports</text>
</g>
<!-- chip&#45;&gt;ports -->
<g id="edge5" class="edge">
<title>chip&#45;&gt;ports</title>
<path fill="none" stroke="#000000" d="M174.4219,-40.6299C174.4219,-35.2212 174.4219,-29.9983 174.4219,-25.3608"/>
<polygon fill="#000000" stroke="#000000" points="170.922,-40.6364 174.4219,-50.6365 177.922,-40.6365 170.922,-40.6364"/>
<polygon fill="#000000" stroke="#000000" points="177.9219,-25.2661 174.4219,-15.2661 170.9219,-25.2662 177.9219,-25.2661"/>
</g>
</g>
</svg>
