<?xml version="1.0" encoding="UTF-8" standalone="no"?>
<!DOCTYPE svg PUBLIC "-//W3C//DTD SVG 1.1//EN"
 "http://www.w3.org/Graphics/SVG/1.1/DTD/svg11.dtd">
<!-- Generated by graphviz version 2.40.1 (20161225.0304)
 -->
<!-- Title: xeth_fig4 Pages: 1 -->
<svg width="135pt" height="258pt"
 viewBox="0.00 0.00 134.84 258.00" xmlns="http://www.w3.org/2000/svg" xmlns:xlink="http://www.w3.org/1999/xlink">
<g id="graph0" class="graph" transform="scale(1 1) rotate(0) translate(4 254)">
<title>xeth_fig4</title>
<polygon fill="#ffffff" stroke="transparent" points="-4,4 -4,-254 130.8437,-254 130.8437,4 -4,4"/>
<!-- devs -->
<g id="node1" class="node">
<title>devs</title>
<text text-anchor="middle" x="63.4219" y="-238.8" font-family="Times,serif" font-size="14.00" fill="#000000">xeth&#45;DEV(s)</text>
</g>
<!-- mux -->
<g id="node2" class="node">
<title>mux</title>
<polygon fill="none" stroke="#000000" points="26.428,-163 100.4157,-163 126.7656,-199 .0781,-199 26.428,-163"/>
<text text-anchor="middle" x="63.4219" y="-177.3" font-family="Times,serif" font-size="14.00" fill="#000000">xeth&#45;mux</text>
</g>
<!-- devs&#45;&gt;mux -->
<g id="edge1" class="edge">
<title>devs&#45;&gt;mux</title>
<path fill="none" stroke="#000000" d="M63.4219,-224.8655C63.4219,-220.087 63.4219,-214.7886 63.4219,-209.574"/>
<polygon fill="#000000" stroke="#000000" points="59.9219,-224.9589 63.4219,-234.9589 66.9219,-224.9589 59.9219,-224.9589"/>
<polygon fill="#000000" stroke="#000000" points="66.9219,-209.1816 63.4219,-199.1816 59.9219,-209.1817 66.9219,-209.1816"/>
</g>
<!-- driver -->
<g id="node3" class="node">
<title>driver</title>
<polygon fill="none" stroke="#000000" points="93.7907,-127 33.053,-127 11.4219,-51 115.4219,-51 93.7907,-127"/>
<text text-anchor="middle" x="63.4219" y="-92.8" font-family="Times,serif" font-size="14.00" fill="#000000">switch</text>
<text text-anchor="middle" x="63.4219" y="-77.8" font-family="Times,serif" font-size="14.00" fill="#000000">driver</text>
</g>
<!-- mux&#45;&gt;driver -->
<g id="edge2" class="edge">
<title>mux&#45;&gt;driver</title>
<path fill="none" stroke="#000000" stroke-width="2" d="M57.1446,-152.8334C56.8712,-147.924 56.7164,-142.6938 56.6802,-137.4212"/>
<polygon fill="#000000" stroke="#000000" stroke-width="2" points="53.6565,-153.1238 57.9181,-162.8238 60.6356,-152.5834 53.6565,-153.1238"/>
<polygon fill="#000000" stroke="#000000" stroke-width="2" points="60.1809,-137.3284 56.7566,-127.3023 53.1811,-137.2755 60.1809,-137.3284"/>
</g>
<!-- mux&#45;&gt;driver -->
<g id="edge3" class="edge">
<title>mux&#45;&gt;driver</title>
<path fill="none" stroke="#000000" stroke-dasharray="5,2" d="M69.6991,-152.8334C69.9725,-147.924 70.1273,-142.6938 70.1635,-137.4212"/>
<polygon fill="#000000" stroke="#000000" points="66.2081,-152.5834 68.9256,-162.8238 73.1872,-153.1238 66.2081,-152.5834"/>
<polygon fill="#000000" stroke="#000000" points="73.6626,-137.2755 70.0871,-127.3023 66.6628,-137.3284 73.6626,-137.2755"/>
</g>
<!-- ports -->
<g id="node4" class="node">
<title>ports</title>
<text text-anchor="middle" x="63.4219" y="-3.8" font-family="Times,serif" font-size="14.00" fill="#000000">ports</text>
</g>
<!-- driver&#45;&gt;ports -->
<g id="edge4" class="edge">
<title>driver&#45;&gt;ports</title>
<path fill="none" stroke="#000000" d="M63.4219,-40.6299C63.4219,-35.2212 63.4219,-29.9983 63.4219,-25.3608"/>
<polygon fill="#000000" stroke="#000000" points="59.922,-40.6364 63.4219,-50.6365 66.922,-40.6365 59.922,-40.6364"/>
<polygon fill="#000000" stroke="#000000" points="66.9219,-25.2661 63.4219,-15.2661 59.9219,-25.2662 66.9219,-25.2661"/>
</g>
</g>
</svg>
